<?xml version="1.0" encoding="utf-8"?>
<!-- Generator: Adobe Illustrator 23.0.1, SVG Export Plug-In . SVG Version: 6.00 Build 0)  -->
<svg version="1.1" id="Layer_1" xmlns="http://www.w3.org/2000/svg" xmlns:xlink="http://www.w3.org/1999/xlink" x="0px" y="0px"
	 viewBox="0 0 660 570" style="enable-background:new 0 0 660 570;" xml:space="preserve">
<style type="text/css">
	.st0{fill:#38598B;}
	.st1{fill:#38598B;stroke:#38598B;stroke-miterlimit:10;}
</style>
<g transform="translate(0 -540.36)">
	<g>
		<g>
			<path class="st0" d="M461.3,918.7c-12.7,0-24.7,4.2-33.8,11.7c-9.1,7.6-14.2,17.5-14.2,28.1s5,20.5,14.2,28.1
				c9.2,7.5,21.1,11.7,33.8,11.7c26,0,47.1-17.9,47.1-39.8C508.4,936.6,487.3,918.7,461.3,918.7z M461.3,980.6
				c-14.6,0-26.8-10.1-26.8-22.1c0-12,12.3-22.1,26.8-22.1c14.4,0,26,9.9,26,22.1C487.3,970.7,475.7,980.6,461.3,980.6z"/>
			<path class="st0" d="M499.3,786.2c-2-1.5-4.7-2.3-7.5-2.3h-57.1c-6.1,0-11.1,4-11.1,8.8v72.5c0,4.9,5,8.8,11.1,8.8h90.5
				c6.1,0,11.1-4,11.1-8.8v-48.5c0-2.5-1.3-4.9-3.7-6.5L499.3,786.2z M514.2,856.4h-68.3v-54.9h41.6l26.7,19.1V856.4z"/>
			<path class="st0" d="M203.3,918.7c-12.7,0-24.7,4.2-33.8,11.7c-9.1,7.6-14.2,17.5-14.2,28.1s5,20.5,14.2,28.1
				c9.2,7.5,21.1,11.7,33.8,11.7c26,0,47.1-17.9,47.1-39.8C250.4,936.6,229.3,918.7,203.3,918.7z M203.3,980.6
				c-14.6,0-26.8-10.1-26.8-22.1c0-12,12.3-22.1,26.8-22.1c14.4,0,26,9.9,26,22.1C229.3,970.7,217.6,980.6,203.3,980.6z"/>
			<path class="st0" d="M132.8,929.6h-21.2v-23.5c0-4.9-4.8-8.8-10.6-8.8s-10.6,4-10.6,8.8v32.4c0,4.9,4.8,8.8,10.6,8.8h31.8
				c5.8,0,10.6-4,10.6-8.8C143.4,933.6,138.6,929.6,132.8,929.6z"/>
			<path class="st0" d="M186.4,881.4c0-4.9-4.8-8.8-10.6-8.8H47.6c-5.8,0-10.6,4-10.6,8.8c0,4.9,4.8,8.8,10.6,8.8h128.2
				C181.6,890.3,186.4,886.4,186.4,881.4z"/>
			<path class="st0" d="M73.5,849.5l134.9,0.6c6.1,0,11.1-3.9,11.2-8.8c0.1-5-4.9-8.9-11-8.9l-134.9-0.6c-0.1,0-0.1,0-0.1,0
				c-6.1,0-11.1,3.9-11.1,8.8C62.4,845.5,67.4,849.5,73.5,849.5z"/>
			<path class="st0" d="M96.2,809.4h134.9c6.1,0,11.1-4,11.1-8.8c0-4.9-5-8.8-11.1-8.8H96.2c-6.1,0-11.1,4-11.1,8.8
				C85.1,805.4,90.1,809.4,96.2,809.4z"/>
			<path class="st0" d="M581.9,797.4L581.9,797.4L502.3,745c-2-1.3-4.5-2-7.1-2h-93.6v-31.8c0-4.9-5-8.8-11.1-8.8H107.1
				c-6.1,0-11.1,4-11.1,8.8v64.7c0,4.9,5,8.8,11.1,8.8c6.1,0,11.1-4,11.1-8.8V720h261.2v209.6h-91.2c-6.1,0-11.1,4-11.1,8.8
				c0,4.9,5,8.8,11.1,8.8H424c6.1,0,11.1-4,11.1-8.8c0-4.9-5-8.8-11.1-8.8h-22.4V760.7h89.6l72.5,47.7l-0.8,121h-11.6
				c-6.1,0-11.1,4-11.1,8.8s5,8.8,11.1,8.8H574c6.1,0,11.1-3.9,11.1-8.8l0.9-134C585.9,801.7,584.5,799.1,581.9,797.4z"/>
		</g>
	</g>
</g>
<g>
	<path class="st1" d="M79.1,139.8l2.4-35.6l2.6-69.8c0.1-2.8,0.1-7,0.1-12.4c7.3,0.1,13.4,0.2,18.6,0.2c3.2,0,8.2-0.1,14.9-0.2
		s11.5-0.2,14.3-0.2c9.6,0,17.7,0.8,24.2,2.2c4.9,1.1,9.5,3,13.6,5.8s7.8,6.4,11,10.8c3.2,4.5,5.6,9.4,7.2,14.7
		c1.8,6.5,2.8,13.2,2.8,20.2c0,9.6-1.7,18.8-5.1,27.7c-3.4,8.8-8.4,16.2-15.1,22.1c-6.7,5.9-14.2,9.8-22.5,11.7
		c-8.3,1.9-17.6,2.8-27.8,2.8l-24.1-0.2C94.5,139.6,88.8,139.7,79.1,139.8z M95.8,128.2c7,0.2,13.5,0.3,19.6,0.3
		c5.1,0,10.2-0.2,15.5-0.7c5.3-0.5,10-1.4,14.1-2.7c4.2-1.3,8.3-3.7,12.3-7.1c4-3.4,7.3-7.3,9.9-11.7s4.5-9.2,5.7-14.6
		c1.3-5.4,1.9-10.8,1.9-16.4c0-6.2-0.8-12-2.4-17.3c-1.6-5.3-4.4-10.1-8.2-14.3c-3.9-4.3-8.5-7.1-13.8-8.5
		c-5.3-1.4-12.4-2.1-21.1-2.1c-10.8,0-20.6,0.1-29.5,0.3L95.8,128.2z"/>
	<path class="st1" d="M319,139.8c-3.2-0.1-5.9-0.2-8.2-0.2c-2.6,0-5.3,0.1-8.1,0.2l0.5-18.7c-1.5,2.9-2.9,5.2-4,6.8
		s-2.5,3.1-4.2,4.7c-1.7,1.5-3.4,2.8-5.2,3.8s-3.9,2-6.3,2.8s-5.2,1.5-8.4,2c-3.2,0.6-6.6,0.8-10.3,0.8c-7.9,0-14.6-1.2-20.3-3.6
		s-9.8-5.8-12.7-10.2c-2.9-4.4-4.3-10.4-4.3-18.1c0-1.2,0.1-3.1,0.2-5.9s0.3-6.4,0.6-10.9l1.6-32.3l0.3-10.4
		c0.1-2.4,0.1-5.4,0.1-9.1l8.9,0.1c1.8,0,4.6,0,8.4-0.1c-0.9,11.3-1.8,23.7-2.6,37.2s-1.2,22.1-1.2,25.8c0,5.7,0.9,10.3,2.8,13.7
		s4.9,6,9.2,7.9c4.3,1.8,9.2,2.8,14.6,2.8c4.8,0,9.4-0.8,13.8-2.5c3.8-1.5,6.9-3.5,9.5-6c2.8-2.8,5.1-6.4,7-10.8
		c1.4-3.2,2.4-7.4,3.1-12.5c0.5-3.7,0.9-10.3,1.4-19.9c0.5-11.7,0.9-23.5,1.1-35.5l9,0.1c1.9,0,4.7,0,8.2-0.1
		c-0.9,11.6-2,29.4-3.2,53.1C319.6,107.6,319.1,122.7,319,139.8z"/>
	<path class="st1" d="M456.8,140c-3.8-0.1-6.5-0.2-8-0.2c-1.6,0-4.4,0-8.5,0l1.2-21c-2.1,3.6-3.9,6.4-5.3,8.4
		c-1.5,2-3.3,3.8-5.3,5.6c-2,1.8-4.4,3.3-7.1,4.7s-5.7,2.5-9,3.3c-3.3,0.8-6.8,1.2-10.5,1.2c-6.3,0-12.2-1.1-17.6-3.4
		c-5.5-2.3-10.1-5.5-13.9-9.7c-3.8-4.2-6.6-9.1-8.3-14.7s-2.5-11.4-2.5-17.5c0-8.2,1.6-16.2,4.8-24.1s7.7-14.4,13.5-19.6
		s12.4-8.7,19.7-10.7c7.3-2,15.1-3,23.3-3c5.7,0,12.5,0.7,20.3,1.9c0.3-7.1,0.5-12.9,0.5-17.6c0-6.7,0-12.2-0.1-16.3l8.8,0.1
		c2.2,0,5.1,0,8.8-0.1l-2.8,54.9l-1.9,62.8V140z M442.8,53.3c-3.9-1.2-7.2-1.9-10-2.2s-5.4-0.5-8-0.5c-6.2,0-12.2,0.9-17.8,2.7
		c-5.7,1.8-10.6,4.7-15,8.8s-7.6,9.3-10,15.5c-2.3,6.3-3.5,12.4-3.5,18.5s1.1,11.6,3.3,16.8c2.2,5.2,5.6,9.3,10.3,12.2
		s10,4.4,16.2,4.4c3.7,0,7.1-0.5,10.1-1.5c3-1,5.8-2.5,8.3-4.4c2.5-1.9,4.8-4.6,7-7.9c2.2-3.3,4-7.1,5.2-11.5
		c1.1-3.8,1.9-9,2.4-15.4c0.3-3.2,0.5-9.3,0.9-18.4L442.8,53.3z"/>
	<path class="st1" d="M509.1,57c0.6-2.8,1.2-7.1,1.9-12.6c7.8-2,14.5-3.4,20.3-4.1c5.7-0.7,11.3-1.1,16.8-1.1
		c5.8,0,11.3,0.5,16.4,1.6s9.3,2.8,12.7,5.2c3.4,2.4,5.6,5.2,6.7,8.3c1.1,3.1,1.7,6.4,1.7,10c0,4.5-0.3,12-1,22.5
		s-1.2,20.3-1.5,29.2c-0.4,8.9-0.5,16.9-0.5,23.9c-3.5-0.1-6.3-0.2-8.6-0.2c-2.1,0-5,0.1-8.8,0.2l2.1-26.5l1.5-31.4
		c-2.3,1.8-4,3-5.1,3.7s-2.4,1.4-3.8,2c-1.4,0.6-3,1.2-4.7,1.8c-1.7,0.6-5,1.5-10,2.9s-8.5,2.4-10.5,3.1c-4.5,1.4-8,2.8-10.6,4.3
		s-4.8,3-6.5,4.7c-1.8,1.7-3,3.4-3.7,5.1c-0.8,2.1-1.3,4.2-1.3,6.5c0,3.5,1,6.5,3.1,9.1c2.1,2.6,4.7,4.4,7.8,5.4s6.9,1.5,11.3,1.5
		c2.7,0,5.6-0.2,8.5-0.6s7-1.4,12-2.9c-0.9,2.5-1.9,6.4-3.1,11.6c-4.7,0.9-8.6,1.5-11.6,1.7s-5.8,0.3-8.5,0.3
		c-8.9,0-15.8-1-20.8-3.1c-5-2.1-8.7-5.2-11.2-9.5c-2.5-4.2-3.7-8.8-3.7-13.8c0-2.9,0.4-5.6,1.3-8.1s2-4.7,3.5-6.7
		c1.5-2,3.6-4,6.4-6c2.8-2,5.6-3.7,8.6-4.9c3-1.3,6.5-2.6,10.5-3.8c4-1.3,10.5-3,19.3-5.1c2.8-0.7,5.3-1.3,7.3-2
		c2-0.7,3.8-1.3,5.3-2c1.5-0.7,2.9-1.4,4.1-2.3c1.2-0.9,2.2-1.9,3.2-3.2c1-1.3,1.7-2.5,2.1-3.8c0.5-1.3,0.7-2.6,0.7-3.9
		c0-3.2-1-5.9-3.1-8.2s-4.8-3.8-8.1-4.8c-3.3-0.9-7.3-1.4-11.8-1.4c-4.2,0-8.5,0.3-13,1c-4.4,0.7-8.3,1.5-11.5,2.4
		C517.9,53.8,513.9,55.2,509.1,57z"/>
</g>
<g>
	<path class="st0" d="M82.4,528c-0.5,2.1-1.2,6.1-2.2,11.9c-3.3,0.7-5.8,1.2-7.7,1.4c-1.9,0.2-3.6,0.3-5.2,0.3
		c-2.9,0-5.5-0.3-7.7-0.8c-2.3-0.5-4.2-1.5-5.6-2.9c-1.5-1.4-2.5-3-3-4.8c-0.5-1.8-0.8-3.8-0.8-5.7c0-0.5,0-1.2,0.1-2
		c0-0.8,0.2-3.6,0.5-8.3l1.3-24.2h-8.4c0.2-2.3,0.4-6.1,0.5-11.3H53c0.2-2.3,0.5-6.1,0.7-11.5l6.9-1.3c1.4-0.3,4.2-0.9,8.4-1.9
		c-0.3,5.3-0.4,10.2-0.5,14.7h14.8c-0.3,5.2-0.4,9-0.4,11.3H67.9c-0.8,15.8-1.2,25-1.2,27.4c0,2.4,0.3,4.3,0.8,5.6
		c0.5,1.3,1.4,2.3,2.5,2.9s2.4,0.9,3.7,0.9c1,0,2-0.1,3.1-0.2S79.8,528.7,82.4,528z"/>
	<path class="st0" d="M96.3,540.2l1.7-27.7l0.5-16.1c0.1-3.3,0.1-6.6,0.1-10c0-0.6,0-2.4-0.1-5.5c3.6,0.1,6.3,0.1,8,0.1
		c2,0,4.6,0,7.9-0.1l-0.3,8.2c1.5-2.1,2.7-3.7,3.8-4.7s2.2-1.9,3.5-2.6c1.3-0.7,2.8-1.3,4.3-1.7s3.2-0.6,4.9-0.6
		c1.6,0,3.1,0.2,4.8,0.6c0,3.6,0.2,8.2,0.5,13.8c-2.3-0.6-4.4-0.9-6.2-0.9c-2.3,0-4.3,0.3-6,1s-3.3,1.7-4.7,3.1
		c-1.4,1.4-2.5,3.1-3.4,5.1c-0.7,1.6-1.3,3.8-1.6,6.4c-0.3,2-0.6,5.5-0.8,10.4s-0.3,9.7-0.3,14.5c0,1.8,0.1,4.1,0.2,6.9
		c-3-0.1-5.7-0.1-8.1-0.1C102.6,540,99.7,540.1,96.3,540.2z"/>
	<path class="st0" d="M153.2,493.9c0.5-2.8,0.9-4.8,1-5.9s0.4-2.8,0.7-5.1c5.3-1.2,9.9-2.1,14-2.6c4-0.5,7.9-0.8,11.7-0.8
		c4.3,0,8.2,0.5,11.8,1.5s6.4,2.6,8.4,4.8s3,5.3,3,9.4c0,2.2-0.3,7.9-0.9,16.9s-1,18.4-1.1,28.1c-3-0.1-5.7-0.1-8.2-0.1
		c-2.4,0-5.1,0-8.3,0.1c0.5-4.7,0.9-10.1,1.2-16.3l0.8-14.5c-1.5,1-2.6,1.6-3.4,2s-1.6,0.8-2.6,1.1s-2.7,0.8-5.1,1.5
		c-2.4,0.7-4.4,1.3-5.9,1.8s-2.8,1.1-4,1.7c-1.2,0.6-2.2,1.4-3,2.2c-0.8,0.8-1.4,1.6-1.8,2.5s-0.6,1.8-0.6,2.8c0,1.6,0.5,3,1.4,4.2
		s2.1,2,3.6,2.5c1.4,0.5,3.1,0.7,5.1,0.7c1.2,0,2.6-0.1,3.9-0.3c1.4-0.2,3.2-0.7,5.6-1.5c-0.8,2.2-1.8,5.5-2.9,9.9
		c-2.8,0.5-4.9,0.8-6.6,0.9s-3.1,0.2-4.6,0.2c-4.9,0-8.9-0.7-12.1-2c-3.1-1.3-5.5-3.4-7-6.3c-1.5-2.9-2.2-5.8-2.2-8.7
		c0-1.7,0.3-3.3,0.9-5s1.4-3.1,2.6-4.5s2.6-2.7,4.4-3.9s4.4-2.5,7.8-3.7c3.4-1.2,7.9-2.4,13.4-3.6c1.5-0.3,3-0.7,4.6-1.1
		s2.9-0.9,3.8-1.3c0.9-0.4,1.8-1,2.5-1.7s1.2-1.4,1.5-2.1c0.3-0.7,0.5-1.5,0.5-2.3c0-1.5-0.5-2.8-1.5-3.9c-1-1-2.3-1.8-3.9-2.2
		s-3.3-0.6-5.2-0.6C169.6,488.8,161.7,490.5,153.2,493.9z"/>
	<path class="st0" d="M221.9,540.2c0.9-8.8,1.6-18.7,2.2-29.7s0.9-20.8,1-29.5c3.6,0.1,6.4,0.1,8.6,0.1c2.5,0,5.2,0,8.1-0.1
		l-0.6,9.9c1.2-1.7,2.3-3.1,3.2-4.1c0.9-1,2.1-2,3.5-3s2.9-1.8,4.6-2.3c1.6-0.6,3.4-1,5.4-1.4s4.1-0.5,6.3-0.5
		c3.5,0,6.8,0.4,9.9,1.3s5.7,2.3,7.7,4.2c1.9,1.9,3.2,4,3.9,6.2c0.6,2.3,0.9,4.6,0.9,7.2c0,1-0.1,2.7-0.2,5l-1.2,25.5
		c-0.1,3.5-0.3,7.3-0.3,11.3c-3.1-0.1-5.7-0.1-7.9-0.1c-3,0-5.9,0-8.9,0.1c0.3-3.4,0.7-9.3,1.2-17.7c0.5-8.4,0.7-14,0.7-16.7
		c0-3.1-0.5-5.5-1.5-7.4c-1-1.9-2.5-3.3-4.5-4.3s-4.2-1.5-6.6-1.5c-2.3,0-4.5,0.5-6.5,1.3c-2,0.9-3.8,2.2-5.2,3.9
		c-1.6,1.8-2.8,3.9-3.6,6.5c-0.9,2.7-1.6,7.2-2,13.5c-0.4,5.6-0.7,13-0.9,22.3c-3-0.1-5.7-0.1-8.1-0.1
		C228.4,540,225.4,540.1,221.9,540.2z"/>
	<path class="st0" d="M303.1,539.1l-1.3-12.8c3.8,1.5,7,2.6,9.7,3.2s5.1,0.9,7.3,0.9s4.1-0.3,5.6-0.8s2.6-1.3,3.4-2.3
		s1.1-2.1,1.1-3.2c0-0.5,0-1-0.1-1.4c-0.1-0.4-0.3-0.9-0.5-1.3c-0.3-0.5-0.5-0.9-0.9-1.3s-0.8-0.9-1.4-1.4c-0.6-0.5-1.4-1.2-2.5-2
		l-3.1-2.5c-3-2.4-5.3-4.2-6.9-5.6s-2.9-2.8-4-4.2s-1.9-2.9-2.5-4.5c-0.6-1.6-0.9-3.2-0.9-4.8c0-2.8,0.9-5.5,2.6-8.1
		s4.2-4.4,7.5-5.6c3.3-1.2,7.2-1.8,11.6-1.8c5.1,0,11,0.6,17.6,1.8l0.8,12.2c-4.5-1.8-8.8-2.7-13-2.7c-2.3,0-4.2,0.2-5.9,0.7
		s-2.9,1.1-3.6,2c-0.7,0.9-1.1,1.9-1.1,3.1c0,0.7,0.1,1.3,0.4,2s0.6,1.3,1.2,2s1.3,1.4,2,2c0.8,0.6,2.3,1.9,4.8,3.7
		c2.4,1.8,4.5,3.5,6.3,5c1.8,1.5,3.3,3,4.5,4.5c1.2,1.5,2.1,3.1,2.7,4.8s0.9,3.4,0.9,5.2c0,2.9-0.9,5.6-2.7,8.1
		c-1.8,2.5-4.5,4.4-8.1,5.8c-3.6,1.4-7.6,2.1-12.1,2.1c-2.3,0-5.2-0.2-8.5-0.5C310.5,540.6,306.9,540,303.1,539.1z"/>
	<path class="st0" d="M361.5,566.9c1-10.8,1.9-24.9,2.6-42.1s1.2-31.3,1.2-42c7.4-1.3,13.1-2.2,17.1-2.6s8.1-0.6,12.1-0.6
		c5.2,0,10,0.6,14.4,1.9c4.4,1.2,7.9,3.3,10.5,6.2c2.6,2.9,4.6,6.3,5.8,10.1c1.3,3.9,1.9,7.9,1.9,12.1c0,4.2-0.6,8.3-1.8,12.2
		s-3,7.5-5.5,10.6c-2.5,3.1-5.4,5.4-8.6,6.8s-6.9,2.1-10.7,2.1c-2.3,0-4.5-0.3-6.8-0.8c-2.2-0.5-4.2-1.3-5.9-2.2s-3.1-1.8-4.2-2.7
		c-1.1-0.9-2.5-2.3-4.1-4.1l-0.9,25.3l-0.1,4c0,0.5-0.1,2.5-0.1,5.8c-3.6,0-6.3-0.1-8.3-0.1L361.5,566.9z M381.4,493.5
		c-0.3,2.1-0.5,3.9-0.6,5.4l-0.4,6.5c-0.2,2.8-0.2,4.9-0.2,6.2c0,2.4,0.2,4.6,0.7,6.8c0.5,2.2,1.5,4.2,2.9,6
		c1.5,1.8,3.2,3.2,5.2,4.2c2,1,4.1,1.4,6.2,1.4c3,0,5.7-0.8,8.1-2.5s4.3-4.2,5.6-7.4c1.3-3.3,2-6.7,2-10.4c0-4.1-0.7-7.5-2.2-10.3
		s-3.4-4.9-5.9-6.1c-2.5-1.3-5.2-1.9-8.4-1.9C390.5,491.1,386.1,491.9,381.4,493.5z"/>
	<path class="st0" d="M475,479.5c4.5,0,8.8,0.7,12.9,2s7.6,3.3,10.4,5.9c2.9,2.6,5,5.8,6.4,9.6s2.2,7.8,2.2,12
		c0,4.4-0.8,8.7-2.3,12.8c-1.5,4.1-3.7,7.7-6.6,10.7c-2.9,3-6.5,5.3-10.8,6.8s-8.9,2.2-13.7,2.2c-4.5,0-8.8-0.7-12.9-2
		s-7.5-3.3-10.4-6s-5.1-5.9-6.6-9.8s-2.2-7.9-2.2-12.1c0-4.3,0.7-8.4,2-12.2c1.4-3.9,3.5-7.3,6.4-10.4s6.6-5.4,11.1-7
		C465.5,480.3,470.2,479.5,475,479.5z M475,491.5c-3.4,0-6.4,0.8-9,2.5c-2.6,1.6-4.6,4.1-5.9,7.4c-1.3,3.3-2,6.8-2,10.7
		c0,3.4,0.5,6.4,1.6,9c1.1,2.6,2.8,4.8,5.2,6.4c2.4,1.6,5.3,2.5,8.6,2.5c3.4,0,6.4-0.8,9-2.5s4.5-4.2,5.8-7.5s2-6.9,2-10.9
		c0-3.2-0.5-6.2-1.5-8.8c-1-2.6-2.7-4.8-5.1-6.4C481.3,492.3,478.4,491.5,475,491.5z"/>
	<path class="st0" d="M522.8,540.2l1.7-27.7l0.5-16.1c0.1-3.3,0.1-6.6,0.1-10c0-0.6,0-2.4-0.1-5.5c3.6,0.1,6.3,0.1,8,0.1
		c2,0,4.6,0,7.9-0.1l-0.3,8.2c1.5-2.1,2.7-3.7,3.8-4.7s2.2-1.9,3.5-2.6c1.3-0.7,2.8-1.3,4.3-1.7s3.2-0.6,4.9-0.6
		c1.5,0,3.2,0.2,4.8,0.6c0,3.6,0.2,8.2,0.5,13.8c-2.3-0.6-4.4-0.9-6.2-0.9c-2.3,0-4.2,0.3-6,1s-3.3,1.7-4.7,3.1
		c-1.4,1.4-2.5,3.1-3.4,5.1c-0.7,1.6-1.3,3.8-1.6,6.4c-0.3,2-0.6,5.5-0.8,10.4s-0.3,9.7-0.3,14.5c0,1.8,0.1,4.1,0.2,6.9
		c-3-0.1-5.7-0.1-8.1-0.1C529,540,526.1,540.1,522.8,540.2z"/>
	<path class="st0" d="M611.5,528c-0.5,2.1-1.2,6.1-2.2,11.9c-3.3,0.7-5.8,1.2-7.7,1.4c-1.9,0.2-3.6,0.3-5.3,0.3
		c-2.9,0-5.5-0.3-7.7-0.8c-2.3-0.5-4.2-1.5-5.6-2.9c-1.5-1.4-2.5-3-3-4.8c-0.5-1.8-0.8-3.8-0.8-5.7c0-0.5,0-1.2,0.1-2
		c0-0.8,0.2-3.6,0.5-8.3l1.3-24.2h-8.4c0.2-2.3,0.4-6.1,0.5-11.3h8.8c0.2-2.3,0.5-6.1,0.7-11.5l6.9-1.3c1.4-0.3,4.2-0.9,8.3-1.9
		c-0.3,5.3-0.4,10.2-0.5,14.7h14.8c-0.3,5.2-0.4,9-0.4,11.3H597c-0.8,15.8-1.2,25-1.2,27.4c0,2.4,0.3,4.3,0.8,5.6
		c0.5,1.3,1.4,2.3,2.5,2.9c1.2,0.6,2.4,0.9,3.7,0.9c1,0,2-0.1,3.1-0.2C606.9,529.1,608.8,528.7,611.5,528z"/>
</g>
</svg>
