<?xml version="1.0" encoding="utf-8"?>
<!-- Generator: Adobe Illustrator 23.0.1, SVG Export Plug-In . SVG Version: 6.00 Build 0)  -->
<svg version="1.1" id="Layer_1" xmlns="http://www.w3.org/2000/svg" xmlns:xlink="http://www.w3.org/1999/xlink" x="0px" y="0px"
	 viewBox="0 0 660 570" style="enable-background:new 0 0 660 570;" xml:space="preserve">
<style type="text/css">
	.st0{fill:#DFE2E2;}
	.st1{fill:#DFE2E2;stroke:#DFE2E2;stroke-width:3;stroke-miterlimit:10;}
</style>
<g transform="translate(0 -540.36)">
	<g>
		<g>
			<path class="st0" d="M461.3,918.72c-12.68,0-24.73,4.15-33.81,11.67c-9.09,7.6-14.16,17.5-14.16,28.11
				c0,10.61,4.97,20.51,14.16,28.11c9.19,7.51,21.13,11.67,33.81,11.67c25.99,0,47.13-17.86,47.13-39.78
				C508.43,936.58,487.29,918.72,461.3,918.72z M461.3,980.6c-14.58,0-26.84-10.08-26.84-22.1c0-12.02,12.26-22.1,26.84-22.1
				c14.37,0,25.99,9.9,25.99,22.1C487.29,970.7,475.67,980.6,461.3,980.6z"/>
			<path class="st0" d="M499.28,786.2c-2-1.5-4.67-2.3-7.45-2.3h-57.06c-6.12,0-11.12,3.98-11.12,8.84v72.49
				c0,4.86,5.01,8.84,11.12,8.84h90.54c6.12,0,11.12-3.98,11.12-8.84V816.7c0-2.48-1.33-4.86-3.67-6.54L499.28,786.2z
				 M514.18,856.39h-68.29v-54.9h41.6l26.69,19.1V856.39z"/>
			<path class="st0" d="M203.26,918.72c-12.68,0-24.73,4.15-33.81,11.67c-9.09,7.6-14.16,17.5-14.16,28.11
				c0,10.61,4.97,20.51,14.16,28.11c9.19,7.51,21.13,11.67,33.81,11.67c25.99,0,47.13-17.86,47.13-39.78
				C250.39,936.58,229.25,918.72,203.26,918.72z M203.26,980.6c-14.58,0-26.84-10.08-26.84-22.1c0-12.02,12.26-22.1,26.84-22.1
				c14.37,0,25.99,9.9,25.99,22.1C229.25,970.7,217.63,980.6,203.26,980.6z"/>
			<path class="st0" d="M132.78,929.59h-21.24v-23.52c0-4.86-4.76-8.84-10.57-8.84c-5.81,0-10.57,3.98-10.57,8.84v32.36
				c0,4.86,4.76,8.84,10.57,8.84h31.81c5.81,0,10.57-3.98,10.57-8.84C143.35,933.57,138.59,929.59,132.78,929.59z"/>
			<path class="st0" d="M186.35,881.41c0-4.86-4.76-8.84-10.57-8.84H47.61c-5.81,0-10.57,3.98-10.57,8.84
				c0,4.86,4.76,8.84,10.57,8.84h128.17C181.6,890.25,186.35,886.36,186.35,881.41z"/>
			<path class="st0" d="M73.49,849.5l134.92,0.62c6.12,0,11.12-3.89,11.23-8.75c0.11-4.95-4.89-8.93-11.01-8.93l-134.92-0.62
				c-0.11,0-0.11,0-0.11,0c-6.12,0-11.12,3.89-11.12,8.75C62.37,845.52,67.37,849.5,73.49,849.5z"/>
			<path class="st0" d="M96.18,809.36H231.1c6.12,0,11.12-3.98,11.12-8.84c0-4.86-5.01-8.84-11.12-8.84H96.18
				c-6.12,0-11.12,3.98-11.12,8.84C85.06,805.39,90.07,809.36,96.18,809.36z"/>
			<path class="st0" d="M581.92,797.43L581.92,797.43l-79.64-52.42c-2-1.33-4.45-2.03-7.12-2.03h-93.65v-31.83
				c0-4.86-5.01-8.84-11.12-8.84h-283.3c-6.12,0-11.12,3.98-11.12,8.84v64.71c0,4.86,5.01,8.84,11.12,8.84
				c6.12,0,11.12-3.98,11.12-8.84v-55.87h261.16v209.61h-91.21c-6.12,0-11.12,3.98-11.12,8.84c0,4.86,5.01,8.84,11.12,8.84h135.81
				c6.12,0,11.12-3.98,11.12-8.84c0-4.86-5.01-8.84-11.12-8.84h-22.36V760.65h89.65l72.52,47.74l-0.78,121.03h-11.57
				c-6.12,0-11.12,3.98-11.12,8.84s5.01,8.84,11.12,8.84h22.58c6.12,0,11.12-3.89,11.12-8.75l0.89-134.02
				C585.92,801.67,584.48,799.11,581.92,797.43z"/>
		</g>
	</g>
</g>
<g>
	<path class="st1" d="M79.13,139.79l2.43-35.57l2.6-69.84c0.06-2.82,0.09-6.96,0.09-12.43c7.25,0.12,13.44,0.17,18.56,0.17
		c3.22,0,8.2-0.06,14.93-0.17c6.73-0.11,11.51-0.17,14.33-0.17c9.61,0,17.67,0.75,24.17,2.24c4.95,1.09,9.48,3.02,13.59,5.78
		c4.11,2.76,7.78,6.38,11,10.83c3.22,4.46,5.61,9.37,7.16,14.72c1.84,6.45,2.76,13.18,2.76,20.2c0,9.61-1.7,18.83-5.09,27.67
		c-3.4,8.84-8.45,16.2-15.15,22.1c-6.71,5.9-14.22,9.79-22.53,11.65c-8.32,1.87-17.6,2.81-27.84,2.81l-24.09-0.17
		C94.5,139.62,88.85,139.68,79.13,139.79z M95.79,128.22c7.01,0.17,13.54,0.26,19.58,0.26c5.06,0,10.22-0.24,15.48-0.73
		c5.26-0.49,9.98-1.39,14.14-2.72c4.17-1.32,8.26-3.7,12.29-7.12c4.03-3.42,7.32-7.31,9.88-11.65c2.56-4.34,4.47-9.21,5.73-14.59
		c1.27-5.38,1.9-10.83,1.9-16.36c0-6.22-0.81-11.97-2.42-17.27c-1.61-5.29-4.36-10.07-8.24-14.33c-3.89-4.26-8.49-7.09-13.81-8.5
		c-5.32-1.41-12.36-2.12-21.11-2.12c-10.76,0-20.6,0.09-29.53,0.26L95.79,128.22z"/>
	<path class="st1" d="M318.95,139.79c-3.17-0.13-5.9-0.19-8.16-0.19c-2.59,0-5.28,0.07-8.07,0.19l0.48-18.74
		c-1.55,2.91-2.9,5.16-4.03,6.75c-1.13,1.59-2.54,3.14-4.23,4.66c-1.68,1.52-3.42,2.8-5.2,3.84c-1.78,1.04-3.87,1.96-6.26,2.77
		c-2.39,0.81-5.19,1.49-8.4,2.04c-3.21,0.55-6.62,0.83-10.25,0.83c-7.9,0-14.65-1.2-20.25-3.59c-5.6-2.39-9.84-5.79-12.72-10.2
		c-2.88-4.4-4.32-10.42-4.32-18.06c0-1.17,0.06-3.14,0.19-5.92c0.13-2.78,0.32-6.41,0.58-10.88l1.63-32.34l0.29-10.39
		c0.06-2.4,0.1-5.44,0.1-9.13l8.95,0.1c1.81,0,4.6-0.03,8.37-0.1c-0.92,11.33-1.79,23.73-2.61,37.2
		c-0.82,13.47-1.23,22.08-1.23,25.83c0,5.7,0.92,10.25,2.77,13.65c1.85,3.4,4.92,6.02,9.23,7.87c4.31,1.85,9.18,2.77,14.63,2.77
		c4.79,0,9.39-0.84,13.8-2.52c3.76-1.49,6.93-3.5,9.52-6.02c2.79-2.78,5.12-6.38,7-10.78c1.36-3.24,2.4-7.41,3.11-12.53
		c0.45-3.69,0.91-10.33,1.36-19.91c0.51-11.65,0.87-23.5,1.06-35.55l9.04,0.1c1.94,0,4.67-0.03,8.17-0.1
		c-0.9,11.65-1.97,29.36-3.2,53.13C319.6,107.61,319.15,122.7,318.95,139.79z"/>
	<path class="st1" d="M456.84,139.98c-3.82-0.13-6.48-0.19-7.97-0.19c-1.62,0-4.44,0-8.45,0l1.16-20.98
		c-2.07,3.63-3.85,6.43-5.34,8.4c-1.49,1.98-3.25,3.84-5.29,5.58c-2.04,1.75-4.4,3.32-7.09,4.71c-2.69,1.39-5.68,2.48-8.98,3.25
		c-3.3,0.78-6.8,1.17-10.49,1.17c-6.28,0-12.16-1.13-17.63-3.4c-5.47-2.27-10.12-5.5-13.94-9.71c-3.82-4.21-6.57-9.11-8.25-14.71
		c-1.68-5.6-2.53-11.44-2.53-17.53c0-8.16,1.59-16.19,4.76-24.09c3.17-7.9,7.66-14.42,13.45-19.57s12.35-8.72,19.67-10.73
		c7.31-2.01,15.08-3.01,23.31-3.01c5.7,0,12.46,0.65,20.3,1.94c0.32-7.06,0.48-12.92,0.48-17.58c0-6.73-0.03-12.17-0.1-16.32
		l8.84,0.1c2.2,0,5.15-0.03,8.84-0.1l-2.81,54.86l-1.94,62.83V139.98z M442.84,53.35c-3.89-1.17-7.2-1.91-9.95-2.23
		c-2.75-0.32-5.42-0.49-8.01-0.49c-6.22,0-12.16,0.89-17.82,2.67c-5.67,1.78-10.65,4.71-14.96,8.79c-4.31,4.08-7.62,9.26-9.95,15.54
		c-2.33,6.28-3.5,12.43-3.5,18.45s1.1,11.64,3.3,16.85c2.2,5.21,5.62,9.29,10.25,12.24c4.63,2.95,10.02,4.42,16.17,4.42
		c3.69,0,7.06-0.5,10.1-1.51c3.04-1,5.81-2.48,8.3-4.42c2.49-1.94,4.84-4.56,7.04-7.87c2.2-3.3,3.95-7.12,5.24-11.46
		c1.1-3.82,1.91-8.97,2.43-15.44c0.26-3.17,0.55-9.29,0.87-18.36L442.84,53.35z"/>
	<path class="st1" d="M509.07,57.04c0.58-2.85,1.2-7.06,1.85-12.63c7.77-2.01,14.52-3.38,20.25-4.13
		c5.73-0.74,11.32-1.12,16.75-1.12c5.83,0,11.28,0.53,16.37,1.6s9.31,2.8,12.67,5.2c3.37,2.4,5.6,5.15,6.7,8.26
		c1.1,3.11,1.65,6.44,1.65,10c0,4.47-0.34,11.96-1.01,22.48c-0.67,10.52-1.19,20.25-1.54,29.19c-0.36,8.94-0.53,16.9-0.53,23.89
		c-3.5-0.13-6.35-0.19-8.56-0.19c-2.08,0-5.03,0.07-8.85,0.19l2.06-26.51l1.47-31.37c-2.27,1.75-3.97,2.98-5.1,3.69
		c-1.13,0.71-2.41,1.38-3.84,1.99c-1.43,0.62-3,1.2-4.71,1.75c-1.72,0.55-5.05,1.51-10.01,2.87c-4.96,1.36-8.47,2.4-10.54,3.11
		c-4.47,1.42-8,2.85-10.59,4.27c-2.59,1.42-4.76,2.98-6.51,4.66c-1.75,1.68-2.98,3.37-3.69,5.05c-0.84,2.07-1.26,4.24-1.26,6.51
		c0,3.5,1.03,6.54,3.11,9.13c2.07,2.59,4.68,4.39,7.82,5.39c3.14,1,6.91,1.51,11.32,1.51c2.72,0,5.57-0.19,8.55-0.57
		c2.98-0.38,6.96-1.35,11.95-2.93c-0.91,2.5-1.94,6.36-3.11,11.56c-4.73,0.91-8.58,1.47-11.56,1.7c-2.98,0.23-5.8,0.34-8.45,0.34
		c-8.87,0-15.8-1.04-20.78-3.11c-4.99-2.07-8.71-5.23-11.17-9.47c-2.46-4.24-3.69-8.85-3.69-13.84c0-2.91,0.44-5.6,1.31-8.06
		c0.87-2.46,2.05-4.69,3.54-6.7c1.49-2.01,3.61-4.01,6.36-6.02c2.75-2.01,5.63-3.66,8.64-4.95c3.01-1.29,6.53-2.57,10.54-3.84
		c4.02-1.26,10.46-2.96,19.33-5.1c2.85-0.65,5.28-1.31,7.28-1.99c2.01-0.68,3.79-1.34,5.34-1.99c1.55-0.65,2.91-1.41,4.08-2.28
		c1.17-0.87,2.24-1.94,3.21-3.21c0.97-1.26,1.68-2.54,2.14-3.84c0.45-1.29,0.68-2.59,0.68-3.89c0-3.17-1.04-5.89-3.11-8.16
		c-2.07-2.27-4.78-3.85-8.11-4.76c-3.33-0.91-7.27-1.36-11.8-1.36c-4.21,0-8.53,0.34-12.97,1.02c-4.44,0.68-8.26,1.49-11.46,2.43
		C517.86,53.76,513.86,55.16,509.07,57.04z"/>
</g>
<g>
	<path class="st0" d="M82.45,527.98c-0.47,2.14-1.2,6.1-2.21,11.89c-3.26,0.74-5.83,1.2-7.69,1.4c-1.86,0.19-3.61,0.29-5.24,0.29
		c-2.88,0-5.45-0.27-7.72-0.82c-2.27-0.54-4.15-1.51-5.62-2.88c-1.48-1.38-2.48-2.99-3-4.84c-0.52-1.84-0.79-3.76-0.79-5.74
		c0-0.5,0.02-1.18,0.06-2.04c0.04-0.85,0.19-3.61,0.47-8.28l1.34-24.24h-8.39c0.19-2.33,0.37-6.08,0.52-11.25h8.78
		c0.23-2.25,0.46-6.08,0.69-11.48l6.89-1.34c1.44-0.27,4.22-0.91,8.35-1.92c-0.28,5.25-0.44,10.16-0.48,14.74h14.81
		c-0.27,5.24-0.41,8.99-0.41,11.25H67.94c-0.82,15.81-1.23,24.96-1.23,27.45c0,2.41,0.26,4.27,0.79,5.59
		c0.52,1.32,1.37,2.27,2.54,2.86s2.41,0.87,3.73,0.87c0.97,0,1.99-0.08,3.06-0.23C77.9,529.11,79.77,528.68,82.45,527.98z"/>
	<path class="st0" d="M96.34,540.16l1.69-27.68l0.47-16.08c0.08-3.3,0.12-6.62,0.12-9.96c0-0.58-0.04-2.43-0.12-5.54
		c3.61,0.08,6.28,0.12,7.99,0.12c1.98,0,4.6-0.04,7.87-0.12l-0.29,8.22c1.48-2.1,2.74-3.66,3.79-4.69c1.05-1.03,2.22-1.91,3.53-2.65
		c1.3-0.74,2.75-1.3,4.34-1.69c1.59-0.39,3.22-0.58,4.9-0.58c1.55,0,3.15,0.19,4.78,0.58c0,3.61,0.17,8.2,0.52,13.75
		c-2.29-0.62-4.37-0.93-6.24-0.93c-2.25,0-4.25,0.34-5.97,1.02s-3.28,1.71-4.66,3.09c-1.38,1.38-2.52,3.08-3.41,5.1
		c-0.74,1.63-1.28,3.75-1.63,6.35c-0.3,2.02-0.56,5.48-0.77,10.37c-0.21,4.89-0.31,9.71-0.31,14.45c0,1.83,0.06,4.12,0.17,6.88
		c-2.96-0.08-5.66-0.12-8.11-0.12C102.57,540.05,99.69,540.09,96.34,540.16z"/>
	<path class="st0" d="M153.18,493.89c0.54-2.8,0.88-4.76,1.02-5.89c0.14-1.13,0.38-2.84,0.73-5.13c5.28-1.24,9.95-2.12,13.99-2.62
		c4.04-0.5,7.94-0.76,11.71-0.76c4.27,0,8.2,0.5,11.77,1.49c3.57,0.99,6.37,2.57,8.39,4.75c2.02,2.18,3.03,5.3,3.03,9.38
		c0,2.21-0.31,7.86-0.93,16.93c-0.62,9.07-0.98,18.44-1.1,28.12c-2.96-0.08-5.68-0.12-8.16-0.12c-2.37,0-5.15,0.04-8.34,0.12
		c0.51-4.7,0.92-10.14,1.24-16.32l0.77-14.51c-1.48,0.97-2.6,1.65-3.38,2.04c-0.78,0.39-1.65,0.75-2.63,1.08s-2.68,0.84-5.13,1.51
		c-2.45,0.68-4.41,1.27-5.89,1.78c-1.48,0.51-2.81,1.08-4,1.72c-1.19,0.64-2.19,1.36-3,2.16c-0.82,0.8-1.41,1.63-1.78,2.51
		s-0.55,1.82-0.55,2.83c0,1.63,0.48,3.04,1.43,4.23c0.95,1.19,2.15,2.01,3.58,2.48c1.44,0.47,3.13,0.7,5.07,0.7
		c1.24,0,2.55-0.1,3.93-0.29c1.38-0.19,3.23-0.68,5.56-1.46c-0.82,2.21-1.77,5.52-2.86,9.91c-2.76,0.47-4.95,0.76-6.58,0.87
		s-3.15,0.17-4.55,0.17c-4.9,0-8.92-0.66-12.06-1.98c-3.15-1.32-5.47-3.42-6.96-6.29c-1.5-2.88-2.24-5.77-2.24-8.68
		c0-1.67,0.29-3.32,0.87-4.95c0.58-1.63,1.44-3.13,2.57-4.49c1.13-1.36,2.58-2.67,4.37-3.93c1.79-1.26,4.37-2.49,7.75-3.67
		c3.38-1.18,7.85-2.38,13.41-3.58c1.48-0.31,3.01-0.69,4.61-1.14s2.87-0.88,3.82-1.31c0.95-0.43,1.78-0.98,2.48-1.66
		c0.7-0.68,1.21-1.39,1.54-2.13c0.33-0.74,0.5-1.5,0.5-2.27c0-1.51-0.5-2.8-1.49-3.85c-0.99-1.05-2.27-1.78-3.85-2.19
		c-1.58-0.41-3.31-0.61-5.22-0.61C169.55,488.82,161.74,490.51,153.18,493.89z"/>
	<path class="st0" d="M221.91,540.16c0.89-8.82,1.63-18.73,2.23-29.72s0.94-20.84,1.01-29.54c3.58,0.08,6.44,0.12,8.58,0.12
		c2.53,0,5.21-0.04,8.05-0.12l-0.65,9.91c1.2-1.71,2.26-3.07,3.18-4.08c0.91-1.01,2.08-2,3.5-2.97c1.42-0.97,2.93-1.75,4.55-2.33
		c1.61-0.58,3.42-1.05,5.42-1.4s4.09-0.52,6.27-0.52c3.46,0,6.77,0.44,9.94,1.31c3.17,0.87,5.72,2.26,7.66,4.17
		c1.94,1.9,3.23,3.98,3.85,6.24c0.62,2.25,0.93,4.64,0.93,7.17c0,1.05-0.06,2.72-0.17,5.01l-1.2,25.46
		c-0.15,3.54-0.25,7.3-0.29,11.31c-3.07-0.08-5.7-0.12-7.88-0.12c-2.96,0-5.93,0.04-8.93,0.12c0.31-3.38,0.7-9.27,1.17-17.69
		c0.47-8.41,0.7-13.98,0.7-16.7c0-3.07-0.49-5.54-1.46-7.4c-0.97-1.87-2.47-3.28-4.51-4.25c-2.04-0.97-4.24-1.46-6.61-1.46
		c-2.33,0-4.5,0.45-6.52,1.34c-2.02,0.89-3.76,2.2-5.24,3.9c-1.55,1.75-2.76,3.9-3.61,6.47c-0.89,2.72-1.55,7.21-1.98,13.46
		c-0.39,5.56-0.7,13-0.94,22.32c-3-0.08-5.7-0.12-8.11-0.12C228.39,540.05,225.41,540.09,221.91,540.16z"/>
	<path class="st0" d="M303.11,539.06l-1.28-12.82c3.81,1.55,7.03,2.63,9.67,3.23c2.64,0.6,5.07,0.9,7.28,0.9s4.08-0.26,5.59-0.79
		s2.64-1.3,3.38-2.33c0.74-1.03,1.11-2.11,1.11-3.23c0-0.5-0.05-0.97-0.15-1.4c-0.1-0.43-0.27-0.88-0.52-1.34
		c-0.25-0.47-0.54-0.9-0.87-1.31c-0.33-0.41-0.79-0.87-1.37-1.4c-0.58-0.52-1.42-1.19-2.51-2.01l-3.15-2.51
		c-3.03-2.37-5.34-4.23-6.93-5.59c-1.59-1.36-2.93-2.75-4.02-4.17c-1.09-1.42-1.91-2.91-2.48-4.49c-0.56-1.57-0.85-3.18-0.85-4.81
		c0-2.84,0.86-5.54,2.59-8.1c1.73-2.56,4.24-4.44,7.55-5.62c3.3-1.18,7.19-1.78,11.65-1.78c5.09,0,10.96,0.6,17.6,1.81l0.76,12.18
		c-4.51-1.83-8.84-2.74-12.99-2.74c-2.25,0-4.23,0.22-5.92,0.67c-1.69,0.45-2.9,1.13-3.64,2.04c-0.74,0.91-1.11,1.93-1.11,3.06
		c0,0.66,0.12,1.31,0.35,1.95c0.23,0.64,0.64,1.31,1.22,2.01c0.58,0.7,1.25,1.36,2.01,1.98c0.76,0.62,2.34,1.85,4.75,3.67
		c2.41,1.83,4.52,3.48,6.32,4.95c1.81,1.48,3.29,2.96,4.46,4.46c1.17,1.5,2.06,3.1,2.68,4.81c0.62,1.71,0.93,3.44,0.93,5.19
		c0,2.91-0.89,5.61-2.68,8.1c-1.79,2.49-4.49,4.43-8.1,5.83c-3.61,1.4-7.65,2.1-12.12,2.1c-2.33,0-5.17-0.18-8.51-0.55
		C310.49,540.64,306.92,539.99,303.11,539.06z"/>
	<path class="st0" d="M361.53,566.91c0.97-10.84,1.85-24.88,2.63-42.13c0.78-17.25,1.17-31.25,1.17-42.02
		c7.38-1.32,13.09-2.19,17.13-2.62c4.04-0.43,8.06-0.64,12.06-0.64c5.24,0,10.05,0.62,14.42,1.86c4.37,1.24,7.87,3.32,10.49,6.24
		c2.62,2.91,4.56,6.29,5.83,10.14c1.26,3.85,1.89,7.87,1.89,12.06c0,4.23-0.6,8.31-1.81,12.24s-3.05,7.45-5.53,10.58
		c-2.49,3.13-5.37,5.4-8.65,6.82c-3.28,1.42-6.86,2.13-10.74,2.13c-2.29,0-4.55-0.27-6.78-0.82c-2.23-0.54-4.19-1.26-5.88-2.16
		s-3.08-1.8-4.16-2.71c-1.09-0.91-2.46-2.28-4.13-4.11l-0.89,25.35l-0.06,3.96c-0.04,0.5-0.06,2.45-0.06,5.83
		c-3.58-0.04-6.34-0.06-8.28-0.06L361.53,566.91z M381.4,493.49c-0.28,2.1-0.47,3.9-0.59,5.42l-0.35,6.47
		c-0.16,2.79-0.23,4.85-0.23,6.16c0,2.36,0.24,4.63,0.73,6.8c0.49,2.17,1.46,4.17,2.92,5.99c1.46,1.82,3.19,3.21,5.2,4.16
		c2,0.95,4.08,1.42,6.22,1.42c2.96,0,5.66-0.84,8.09-2.53c2.43-1.69,4.31-4.16,5.64-7.42c1.32-3.26,1.99-6.73,1.99-10.42
		c0-4.07-0.73-7.52-2.19-10.33c-1.46-2.81-3.42-4.86-5.87-6.14c-2.45-1.28-5.24-1.92-8.35-1.92
		C390.54,491.15,386.15,491.93,381.4,493.49z"/>
	<path class="st0" d="M475.01,479.5c4.47,0,8.75,0.67,12.85,2.01c4.1,1.34,7.58,3.32,10.43,5.94c2.86,2.62,5,5.83,6.44,9.62
		s2.16,7.78,2.16,11.98c0,4.43-0.76,8.7-2.27,12.82c-1.52,4.12-3.71,7.68-6.58,10.69c-2.88,3.01-6.46,5.26-10.75,6.76
		s-8.87,2.24-13.72,2.24c-4.51,0-8.79-0.67-12.85-2.01c-4.06-1.34-7.53-3.35-10.4-6.03s-5.06-5.94-6.56-9.79
		c-1.5-3.85-2.24-7.87-2.24-12.06c0-4.27,0.68-8.35,2.04-12.24c1.36-3.88,3.49-7.34,6.38-10.37c2.89-3.03,6.59-5.38,11.1-7.05
		C465.53,480.34,470.19,479.5,475.01,479.5z M475.01,491.5c-3.37,0-6.38,0.83-9.03,2.48c-2.65,1.65-4.63,4.11-5.92,7.37
		c-1.3,3.26-1.95,6.82-1.95,10.66c0,3.38,0.53,6.39,1.6,9.03c1.06,2.64,2.81,4.78,5.23,6.41c2.42,1.63,5.29,2.45,8.62,2.45
		c3.41,0,6.4-0.85,8.97-2.54c2.57-1.69,4.51-4.18,5.81-7.46s1.95-6.91,1.95-10.87c0-3.22-0.5-6.16-1.51-8.8
		c-1.01-2.64-2.7-4.76-5.08-6.35C481.31,492.3,478.41,491.5,475.01,491.5z"/>
	<path class="st0" d="M522.76,540.16l1.69-27.68l0.47-16.08c0.08-3.3,0.12-6.62,0.12-9.96c0-0.58-0.04-2.43-0.12-5.54
		c3.61,0.08,6.28,0.12,7.99,0.12c1.98,0,4.6-0.04,7.87-0.12l-0.29,8.22c1.48-2.1,2.74-3.66,3.79-4.69c1.05-1.03,2.22-1.91,3.53-2.65
		c1.3-0.74,2.75-1.3,4.34-1.69c1.59-0.39,3.22-0.58,4.89-0.58c1.55,0,3.15,0.19,4.78,0.58c0,3.61,0.17,8.2,0.52,13.75
		c-2.29-0.62-4.37-0.93-6.24-0.93c-2.25,0-4.24,0.34-5.97,1.02s-3.28,1.71-4.66,3.09c-1.38,1.38-2.52,3.08-3.41,5.1
		c-0.74,1.63-1.28,3.75-1.63,6.35c-0.3,2.02-0.56,5.48-0.77,10.37c-0.21,4.89-0.31,9.71-0.31,14.45c0,1.83,0.06,4.12,0.17,6.88
		c-2.96-0.08-5.66-0.12-8.11-0.12C528.98,540.05,526.1,540.09,522.76,540.16z"/>
	<path class="st0" d="M611.48,527.98c-0.47,2.14-1.21,6.1-2.21,11.89c-3.26,0.74-5.83,1.2-7.69,1.4c-1.87,0.19-3.61,0.29-5.25,0.29
		c-2.88,0-5.45-0.27-7.72-0.82c-2.27-0.54-4.15-1.51-5.62-2.88c-1.48-1.38-2.48-2.99-3-4.84c-0.52-1.84-0.79-3.76-0.79-5.74
		c0-0.5,0.02-1.18,0.06-2.04c0.04-0.85,0.19-3.61,0.46-8.28l1.34-24.24h-8.39c0.19-2.33,0.37-6.08,0.52-11.25h8.78
		c0.23-2.25,0.46-6.08,0.7-11.48l6.89-1.34c1.44-0.27,4.22-0.91,8.35-1.92c-0.28,5.25-0.44,10.16-0.48,14.74h14.81
		c-0.27,5.24-0.41,8.99-0.41,11.25h-14.86c-0.82,15.81-1.23,24.96-1.23,27.45c0,2.41,0.26,4.27,0.79,5.59
		c0.52,1.32,1.37,2.27,2.54,2.86c1.17,0.58,2.41,0.87,3.73,0.87c0.97,0,1.99-0.08,3.06-0.23
		C606.92,529.11,608.79,528.68,611.48,527.98z"/>
</g>
</svg>
