<?xml version="1.0" encoding="utf-8"?>
<!-- Generator: Adobe Illustrator 23.0.1, SVG Export Plug-In . SVG Version: 6.00 Build 0)  -->
<svg version="1.1" id="Layer_1" xmlns="http://www.w3.org/2000/svg" xmlns:xlink="http://www.w3.org/1999/xlink" x="0px" y="0px"
	 viewBox="0 0 1920 1080" style="enable-background:new 0 0 1920 1080;" xml:space="preserve">
<style type="text/css">
	.st0{fill:#DFE2E2;}
	.st1{fill:#DFE2E2;stroke:#DFE2E2;stroke-width:3;stroke-miterlimit:10;}
	.st2{fill:#DFE2E2;stroke:#DFE2E2;stroke-miterlimit:10;}
	.st3{fill:none;}
</style>
<g transform="translate(0 -540.36)">
	<g>
		<g>
			<path class="st0" d="M1027.9,1176.31c-14.34,0-27.97,4.7-38.25,13.2c-10.28,8.6-16.02,19.8-16.02,31.8s5.62,23.2,16.02,31.8
				c10.4,8.5,23.91,13.2,38.25,13.2c29.4,0,53.31-20.2,53.31-45C1081.21,1196.51,1057.31,1176.31,1027.9,1176.31z M1027.9,1246.31
				c-16.49,0-30.36-11.4-30.36-25s13.87-25,30.36-25c16.26,0,29.4,11.2,29.4,25C1057.31,1235.11,1044.16,1246.31,1027.9,1246.31z"/>
			<path class="st0" d="M1041.77,1026.41c-2.15-1.7-5.02-2.6-8.01-2.6h-61.32c-6.57,0-11.95,4.5-11.95,10v82c0,5.5,5.38,10,11.95,10
				h97.3c6.57,0,11.95-4.5,11.95-10v-54.9c0-2.8-1.43-5.5-3.94-7.4L1041.77,1026.41z M1057.79,1105.81H984.4v-62.1h44.7l28.69,21.6
				V1105.81z"/>
			<path class="st0" d="M736.02,1176.31c-14.34,0-27.97,4.7-38.25,13.2c-10.28,8.6-16.02,19.8-16.02,31.8s5.62,23.2,16.02,31.8
				c10.4,8.5,23.91,13.2,38.25,13.2c29.4,0,53.31-20.2,53.31-45C789.33,1196.51,765.42,1176.31,736.02,1176.31z M736.02,1246.31
				c-16.49,0-30.36-11.4-30.36-25s13.87-25,30.36-25c16.26,0,29.4,11.2,29.4,25C765.42,1235.11,752.27,1246.31,736.02,1246.31z"/>
			<path class="st0" d="M656.29,1188.61h-24.03v-26.6c0-5.5-5.38-10-11.95-10c-6.57,0-11.95,4.5-11.95,10v36.6
				c0,5.5,5.38,10,11.95,10h35.98c6.57,0,11.95-4.5,11.95-10S662.87,1188.61,656.29,1188.61z"/>
			<path class="st0" d="M716.89,1134.11c0-5.5-5.38-10-11.95-10H559.95c-6.57,0-11.95,4.5-11.95,10s5.38,10,11.95,10h144.99
				C711.51,1144.11,716.89,1139.71,716.89,1134.11z"/>
			<path class="st0" d="M584.22,1098.01l144.99,0.7c6.57,0,11.95-4.4,12.07-9.9c0.12-5.6-5.26-10.1-11.83-10.1l-144.99-0.7
				c-0.12,0-0.12,0-0.12,0c-6.57,0-11.95,4.4-11.95,9.9C572.26,1093.51,577.64,1098.01,584.22,1098.01z"/>
			<path class="st0" d="M608.6,1052.61h144.99c6.57,0,11.95-4.5,11.95-10s-5.38-10-11.95-10H608.6c-6.57,0-11.95,4.5-11.95,10
				S602.03,1052.61,608.6,1052.61z"/>
			<path class="st0" d="M1130.58,1039.11L1130.58,1039.11l-85.58-59.3c-2.15-1.5-4.78-2.3-7.65-2.3H936.7v-36
				c0-5.5-5.38-10-11.95-10H620.31c-6.57,0-11.95,4.5-11.95,10v73.2c0,5.5,5.38,10,11.95,10c6.57,0,11.95-4.5,11.95-10v-63.2h280.65
				v237.1h-98.01c-6.57,0-11.95,4.5-11.95,10s5.38,10,11.95,10h145.94c6.57,0,11.95-4.5,11.95-10s-5.38-10-11.95-10h-24.03v-191.1
				h96.34l77.93,54l-0.84,136.9h-12.43c-6.57,0-11.95,4.5-11.95,10s5.38,10,11.95,10h24.26c6.57,0,11.95-4.4,11.95-9.9l0.96-151.6
				C1134.88,1043.91,1133.33,1041.01,1130.58,1039.11z"/>
		</g>
	</g>
</g>
<g>
	<path class="st1" d="M557.6,368.09l2.75-40.23l2.94-79c0.06-3.19,0.1-7.88,0.1-14.06c8.2,0.13,15.2,0.2,20.99,0.2
		c3.64,0,9.27-0.06,16.89-0.2c7.62-0.13,13.02-0.2,16.21-0.2c10.87,0,19.98,0.85,27.34,2.54c5.6,1.24,10.72,3.42,15.38,6.54
		c4.65,3.13,8.8,7.21,12.45,12.26c3.65,5.05,6.35,10.6,8.1,16.65c2.08,7.29,3.13,14.91,3.13,22.85c0,10.87-1.92,21.31-5.76,31.3
		c-3.84,9.99-9.56,18.33-17.14,25c-7.58,6.67-16.08,11.07-25.49,13.18c-9.41,2.12-19.91,3.17-31.49,3.17l-27.25-0.2
		C574.99,367.89,568.61,367.96,557.6,368.09z M576.45,355c7.93,0.2,15.31,0.29,22.15,0.29c5.72,0,11.56-0.28,17.51-0.83
		c5.95-0.55,11.28-1.58,16-3.08c4.71-1.5,9.35-4.18,13.9-8.06c4.55-3.87,8.28-8.27,11.17-13.18c2.89-4.92,5.06-10.42,6.49-16.5
		c1.43-6.09,2.15-12.26,2.15-18.51c0-7.03-0.91-13.54-2.73-19.53c-1.82-5.99-4.93-11.39-9.33-16.21c-4.39-4.82-9.6-8.02-15.63-9.62
		c-6.02-1.59-13.98-2.39-23.88-2.39c-12.17,0-23.31,0.1-33.4,0.29L576.45,355z"/>
	<path class="st1" d="M828.88,368.09c-3.59-0.15-6.67-0.22-9.23-0.22c-2.93,0-5.97,0.07-9.13,0.22l0.55-21.2
		c-1.76,3.3-3.28,5.84-4.56,7.64c-1.28,1.8-2.88,3.55-4.78,5.27c-1.91,1.72-3.87,3.17-5.88,4.34c-2.01,1.17-4.38,2.22-7.09,3.13
		c-2.71,0.92-5.88,1.68-9.5,2.31c-3.62,0.62-7.49,0.93-11.59,0.93c-8.94,0-16.57-1.36-22.91-4.06s-11.13-6.55-14.39-11.54
		c-3.26-4.98-4.89-11.79-4.89-20.43c0-1.32,0.07-3.55,0.22-6.7c0.14-3.15,0.36-7.25,0.65-12.3l1.85-36.58l0.33-11.76
		c0.07-2.71,0.11-6.15,0.11-10.33l10.13,0.11c2.05,0,5.21-0.04,9.47-0.11c-1.04,12.82-2.02,26.84-2.95,42.08
		c-0.93,15.23-1.39,24.98-1.39,29.22c0,6.45,1.04,11.59,3.13,15.44c2.09,3.85,5.57,6.81,10.44,8.9c4.87,2.09,10.39,3.13,16.54,3.13
		c5.42,0,10.63-0.95,15.61-2.86c4.25-1.68,7.84-3.96,10.77-6.81c3.15-3.15,5.79-7.21,7.91-12.19c1.54-3.66,2.71-8.39,3.52-14.17
		c0.51-4.17,1.03-11.68,1.54-22.52c0.58-13.18,0.98-26.59,1.2-40.21l10.23,0.11c2.2,0,5.28-0.04,9.24-0.11
		c-1.02,13.18-2.23,33.22-3.62,60.1C829.62,331.69,829.11,348.75,828.88,368.09z"/>
	<path class="st1" d="M984.86,368.31c-4.32-0.15-7.33-0.22-9.01-0.22c-1.83,0-5.02,0-9.56,0l1.31-23.73
		c-2.34,4.1-4.36,7.27-6.04,9.5c-1.69,2.24-3.68,4.34-5.99,6.32c-2.31,1.98-4.98,3.75-8.02,5.33c-3.04,1.58-6.43,2.8-10.16,3.68
		s-7.69,1.32-11.87,1.32c-7.1,0-13.75-1.28-19.94-3.85c-6.19-2.56-11.44-6.22-15.77-10.99c-4.32-4.76-7.43-10.31-9.34-16.64
		c-1.91-6.33-2.86-12.95-2.86-19.83c0-9.23,1.79-18.31,5.38-27.25c3.59-8.94,8.66-16.31,15.21-22.14
		c6.55-5.82,13.97-9.87,22.25-12.14c8.27-2.27,17.06-3.41,26.36-3.41c6.44,0,14.1,0.73,22.96,2.2c0.36-7.98,0.55-14.61,0.55-19.89
		c0-7.62-0.04-13.77-0.11-18.46l10,0.11c2.49,0,5.83-0.04,10-0.11l-3.18,62.05l-2.19,71.08V368.31z M969.03,270.31
		c-4.39-1.32-8.15-2.16-11.26-2.53c-3.11-0.37-6.13-0.55-9.06-0.55c-7.03,0-13.75,1.01-20.16,3.02c-6.41,2.02-12.05,5.33-16.92,9.94
		s-8.62,10.47-11.26,17.58c-2.64,7.1-3.95,14.06-3.95,20.87s1.24,13.17,3.73,19.06c2.49,5.9,6.35,10.51,11.59,13.84
		c5.24,3.33,11.33,5,18.29,5c4.17,0,7.98-0.57,11.42-1.7c3.44-1.13,6.57-2.8,9.39-5s5.47-5.16,7.96-8.9
		c2.49-3.74,4.47-8.06,5.93-12.96c1.25-4.32,2.16-10.14,2.75-17.47c0.29-3.59,0.62-10.51,0.99-20.76L969.03,270.31z"/>
	<path class="st1" d="M1043.94,274.48c0.66-3.22,1.35-7.98,2.09-14.28c8.79-2.27,16.42-3.83,22.91-4.67
		c6.48-0.84,12.8-1.26,18.95-1.26c6.59,0,12.76,0.6,18.51,1.81c5.75,1.21,10.53,3.17,14.34,5.88c3.81,2.71,6.33,5.82,7.58,9.34
		c1.25,3.52,1.87,7.29,1.87,11.32c0,5.05-0.38,13.53-1.15,25.43c-0.76,11.9-1.35,22.91-1.75,33.01c-0.4,10.11-0.6,19.12-0.6,27.03
		c-3.96-0.15-7.19-0.22-9.68-0.22c-2.35,0-5.68,0.07-10.01,0.22l2.33-29.99l1.67-35.49c-2.57,1.98-4.49,3.37-5.77,4.17
		c-1.28,0.81-2.73,1.56-4.34,2.25c-1.61,0.7-3.39,1.36-5.33,1.98c-1.94,0.62-5.72,1.7-11.32,3.24s-9.58,2.71-11.93,3.52
		c-5.06,1.61-9.05,3.22-11.98,4.83c-2.93,1.61-5.39,3.37-7.37,5.27c-1.98,1.91-3.37,3.81-4.18,5.71c-0.95,2.34-1.43,4.8-1.43,7.36
		c0,3.96,1.17,7.4,3.52,10.33c2.34,2.93,5.29,4.96,8.84,6.1c3.55,1.14,7.82,1.7,12.8,1.7c3.08,0,6.3-0.21,9.67-0.64
		c3.37-0.43,7.87-1.53,13.51-3.31c-1.03,2.83-2.2,7.19-3.52,13.07c-5.35,1.02-9.71,1.67-13.07,1.92c-3.37,0.26-6.56,0.38-9.56,0.38
		c-10.04,0-17.87-1.17-23.51-3.52c-5.64-2.34-9.85-5.91-12.63-10.71c-2.78-4.8-4.17-10.01-4.17-15.66c0-3.3,0.49-6.33,1.48-9.12
		c0.99-2.78,2.32-5.31,4.01-7.58c1.69-2.27,4.08-4.54,7.2-6.81c3.11-2.27,6.37-4.14,9.78-5.6c3.41-1.46,7.38-2.91,11.92-4.34
		c4.54-1.43,11.83-3.35,21.87-5.77c3.22-0.73,5.97-1.48,8.24-2.25c2.27-0.77,4.29-1.52,6.04-2.25c1.76-0.73,3.3-1.59,4.61-2.58
		c1.32-0.99,2.53-2.2,3.63-3.63c1.1-1.43,1.9-2.87,2.42-4.34c0.51-1.46,0.77-2.93,0.77-4.39c0-3.59-1.17-6.66-3.52-9.23
		c-2.34-2.56-5.4-4.36-9.17-5.38c-3.77-1.02-8.22-1.54-13.35-1.54c-4.76,0-9.65,0.38-14.67,1.15c-5.02,0.77-9.34,1.69-12.97,2.75
		C1053.89,270.77,1049.36,272.36,1043.94,274.48z"/>
</g>
<g>
	<path class="st2" d="M513.52,787.1l0.99-13.09l0.72-15.14l0.44-13.77v-4.65c5.63,0.05,11.5,0.07,17.6,0.07l6.56-0.03l9.88-0.03
		l-0.41,7.38l-3.25-0.17c-0.89-0.04-2.12-0.08-3.69-0.1c-1.57-0.02-3.18-0.03-4.82-0.03c-3.55,0-5.85,0.01-6.89,0.02
		c-1.04,0.01-2.6,0.05-4.7,0.12l-0.56,12.13c3.12,0.07,6.27,0.1,9.44,0.1c2.19,0,5.88-0.07,11.08-0.21
		c-0.18,2.07-0.34,4.56-0.48,7.45c-6.08-0.07-9.57-0.1-10.46-0.1c-2.69,0-6.04,0.07-10.05,0.21l-0.56,12.78l3.76,0.03
		c1.09,0,3.6-0.02,7.52-0.07l7.42-0.14l4.96-0.24c-0.23,2.64-0.39,5.14-0.48,7.49c-5.92-0.04-11.27-0.07-16.03-0.07l-11.25,0.03
		L513.52,787.1z"/>
	<path class="st2" d="M546.45,787.1l2.55-3.11c0.8-0.96,2.17-2.67,4.09-5.13l9.29-11.89l2.92-3.95l-4.21-6.88l-10.17-15.69
		c2.23,0.05,4.38,0.07,6.43,0.07c1.64,0,3.52-0.02,5.64-0.07c1.24,2.69,2.65,5.48,4.23,8.37c1.58,2.89,2.8,5.26,3.65,7.11
		c1.41-1.91,3.42-4.44,6.01-7.57c2.6-3.13,4.63-5.77,6.09-7.91c1.87,0.05,3.76,0.07,5.67,0.07c1.23,0,3.12-0.02,5.67-0.07
		c-1.82,2.38-4.4,5.66-7.73,9.83c-3.33,4.17-6.49,8.28-9.49,12.31c3.14,5.24,8.35,13.41,15.64,24.52c-2.66-0.04-4.6-0.07-5.8-0.07
		c-1.96,0-4.06,0.02-6.32,0.07c-1.26-2.23-2.96-4.94-5.11-8.14c-2.14-3.2-3.83-5.81-5.07-7.85c-1.29,1.79-3.2,4.25-5.74,7.38
		c-2.54,3.13-4.77,6-6.68,8.61c-2.48-0.04-4.38-0.07-5.68-0.07C550.93,787.04,548.96,787.06,546.45,787.1z"/>
	<path class="st2" d="M594.22,787.1l0.62-8.1l0.85-17.94l0.41-13.02c0.02-1.18,0.03-2.38,0.03-3.59c0-0.89-0.01-2.22-0.03-4
		c2.92,0.05,5.29,0.07,7.11,0.07c1.46,0,3.49-0.03,6.08-0.1s4.66-0.1,6.19-0.1c3.14,0,5.46,0.23,6.94,0.68
		c1.57,0.5,2.95,1.29,4.14,2.36c1.18,1.07,2.08,2.36,2.7,3.86c0.68,1.69,1.03,3.5,1.03,5.43c0,2.94-0.73,5.61-2.2,8.02
		s-3.5,4.2-6.1,5.38c-2.6,1.19-5.48,1.78-8.65,1.78c-1.55,0-3.2-0.16-4.96-0.48c-0.5-2.37-1.07-4.59-1.71-6.67
		c1.41,0.3,2.81,0.44,4.19,0.44c1.89,0,3.52-0.28,4.91-0.85c1.39-0.57,2.49-1.5,3.31-2.79c0.82-1.29,1.23-2.74,1.23-4.36
		c0-0.96-0.17-1.83-0.51-2.63c-0.34-0.8-0.84-1.44-1.48-1.91c-0.65-0.48-1.36-0.8-2.15-0.97c-0.78-0.17-1.9-0.26-3.36-0.26
		c-1.27,0-2.56,0.02-3.85,0.07c-1.3,0.05-2.44,0.07-3.44,0.07c-0.27,4.47-0.48,8.74-0.61,12.82l-0.41,13.06
		c-0.14,4.63-0.2,8.02-0.2,10.19c0,0.82,0.01,2.01,0.03,3.55l-4.96-0.07C598.71,787.04,597,787.06,594.22,787.1z"/>
	<path class="st2" d="M631.81,787.1c0.69-6.79,1.2-14.59,1.55-23.41s0.52-16.57,0.52-23.24c2.73,0.05,5.02,0.07,6.87,0.07
		c1.98,0,3.92-0.03,5.83-0.1c1.9-0.07,3.91-0.1,6.03-0.1c2.64,0,5.01,0.15,7.09,0.44c2.08,0.3,3.94,0.98,5.55,2.05
		c1.62,1.07,2.82,2.37,3.6,3.9c0.79,1.53,1.18,3.3,1.18,5.33c0,1.28-0.15,2.49-0.44,3.64c-0.3,1.15-0.73,2.23-1.32,3.25
		c-0.58,1.01-1.27,1.9-2.07,2.67c-0.8,0.76-1.59,1.37-2.38,1.81c-0.79,0.44-1.68,0.83-2.68,1.14c-1,0.32-2.35,0.71-4.03,1.16
		l2.32,4.51c0.75,1.44,2.18,4.01,4.27,7.72l3.45,6.05c0.18,0.32,0.73,1.36,1.64,3.11c-2.79-0.04-4.63-0.07-5.52-0.07
		c-1.1,0-3.03,0.02-5.79,0.07l-3.79-9.09c-0.66-1.39-1.46-3.03-2.39-4.92l-4.13-8.31c-0.41-0.77-0.98-1.94-1.71-3.49
		c1.53,0.27,2.92,0.41,4.17,0.41c1.96,0,3.75-0.32,5.37-0.96c1.62-0.64,2.86-1.62,3.73-2.96c0.87-1.33,1.3-2.79,1.3-4.36
		c0-0.96-0.19-1.85-0.56-2.67s-1.01-1.51-1.9-2.08c-0.89-0.57-1.95-0.93-3.18-1.09c-1.23-0.16-2.46-0.24-3.69-0.24
		c-0.68,0-1.62,0.01-2.8,0.03c-1.19,0.02-2.64,0.03-4.38,0.03l-0.61,14.05l-0.64,25.63l-5.3-0.07
		C636.13,787.04,634.41,787.06,631.81,787.1z"/>
	<path class="st2" d="M672.5,787.1l0.99-13.09l0.72-15.14l0.44-13.77v-4.65c5.63,0.05,11.5,0.07,17.6,0.07l6.56-0.03l9.88-0.03
		l-0.41,7.38l-3.25-0.17c-0.89-0.04-2.12-0.08-3.69-0.1c-1.57-0.02-3.18-0.03-4.82-0.03c-3.55,0-5.85,0.01-6.89,0.02
		c-1.04,0.01-2.6,0.05-4.7,0.12l-0.56,12.13c3.12,0.07,6.27,0.1,9.44,0.1c2.19,0,5.88-0.07,11.08-0.21
		c-0.18,2.07-0.34,4.56-0.48,7.45c-6.08-0.07-9.57-0.1-10.46-0.1c-2.69,0-6.04,0.07-10.05,0.21l-0.56,12.78l3.76,0.03
		c1.09,0,3.6-0.02,7.52-0.07l7.42-0.14l4.96-0.24c-0.23,2.64-0.39,5.14-0.48,7.49c-5.92-0.04-11.27-0.07-16.03-0.07l-11.25,0.03
		L672.5,787.1z"/>
	<path class="st2" d="M710.6,786.11c-0.18-3.46-0.42-6.29-0.72-8.48c4.47,2.03,8.52,3.04,12.17,3.04c1.46,0,2.82-0.22,4.08-0.67
		c1.26-0.45,2.2-1.07,2.8-1.88c0.6-0.81,0.91-1.71,0.91-2.72c0-0.77-0.15-1.47-0.44-2.08c-0.44-0.84-1.16-1.72-2.18-2.63
		c-1.3-1.25-3.63-3.32-6.97-6.19c-1.59-1.39-2.69-2.38-3.3-2.97c-1.37-1.3-2.42-2.47-3.14-3.5c-0.73-1.04-1.25-2.07-1.57-3.09
		c-0.32-1.03-0.48-2.12-0.48-3.28c0-2.14,0.6-4.15,1.79-6.03c1.2-1.88,2.98-3.35,5.37-4.41c2.38-1.06,5.38-1.59,9.01-1.59
		c3.26,0,6.93,0.4,11.01,1.2c0.11,2.37,0.34,5.08,0.68,8.13c-3.55-1.37-6.82-2.05-9.82-2.05c-2.23,0-4.05,0.51-5.48,1.52
		s-2.13,2.19-2.13,3.54c0,0.37,0.05,0.75,0.15,1.14c0.1,0.4,0.25,0.79,0.45,1.16c0.2,0.38,0.55,0.87,1.06,1.47s1.25,1.31,2.23,2.12
		c0.98,0.81,1.81,1.46,2.51,1.96l4.22,3.83c1.07,0.89,2.02,1.75,2.87,2.6c0.84,0.84,1.56,1.65,2.17,2.43
		c0.6,0.78,1.07,1.52,1.42,2.22c0.34,0.71,0.6,1.43,0.77,2.17c0.17,0.74,0.26,1.52,0.26,2.34c0,1.91-0.44,3.72-1.33,5.42
		s-2.17,3.09-3.83,4.19c-1.66,1.09-3.49,1.85-5.47,2.27c-1.98,0.42-4.08,0.63-6.29,0.63c-1.46,0-3.16-0.13-5.09-0.38
		C716.32,787.3,713.76,786.82,710.6,786.11z"/>
	<path class="st2" d="M742.99,786.11c-0.18-3.46-0.42-6.29-0.72-8.48c4.47,2.03,8.52,3.04,12.17,3.04c1.46,0,2.82-0.22,4.08-0.67
		c1.26-0.45,2.2-1.07,2.8-1.88c0.6-0.81,0.91-1.71,0.91-2.72c0-0.77-0.15-1.47-0.44-2.08c-0.44-0.84-1.16-1.72-2.18-2.63
		c-1.3-1.25-3.63-3.32-6.97-6.19c-1.59-1.39-2.69-2.38-3.3-2.97c-1.37-1.3-2.42-2.47-3.14-3.5c-0.73-1.04-1.25-2.07-1.57-3.09
		c-0.32-1.03-0.48-2.12-0.48-3.28c0-2.14,0.6-4.15,1.79-6.03c1.2-1.88,2.98-3.35,5.37-4.41c2.38-1.06,5.38-1.59,9.01-1.59
		c3.26,0,6.93,0.4,11.01,1.2c0.11,2.37,0.34,5.08,0.68,8.13c-3.55-1.37-6.82-2.05-9.82-2.05c-2.23,0-4.05,0.51-5.48,1.52
		s-2.13,2.19-2.13,3.54c0,0.37,0.05,0.75,0.15,1.14c0.1,0.4,0.25,0.79,0.45,1.16c0.2,0.38,0.55,0.87,1.06,1.47s1.25,1.31,2.23,2.12
		c0.98,0.81,1.81,1.46,2.51,1.96l4.22,3.83c1.07,0.89,2.02,1.75,2.87,2.6c0.84,0.84,1.56,1.65,2.17,2.43
		c0.6,0.78,1.07,1.52,1.42,2.22c0.34,0.71,0.6,1.43,0.77,2.17c0.17,0.74,0.26,1.52,0.26,2.34c0,1.91-0.44,3.72-1.33,5.42
		s-2.17,3.09-3.83,4.19c-1.66,1.09-3.49,1.85-5.47,2.27c-1.98,0.42-4.08,0.63-6.29,0.63c-1.46,0-3.16-0.13-5.09-0.38
		C748.71,787.3,746.15,786.82,742.99,786.11z"/>
	<path class="st2" d="M800.52,787.1l0.75-9.98l0.75-14.87l0.48-14.63h-2.39l-2.22,0.03l-2.12,0.03l-7.88,0.24
		c0.18-3.28,0.28-5.78,0.31-7.49c6.56,0.05,13.43,0.07,20.6,0.07l12.27-0.03l6.56-0.04c-0.23,3.24-0.34,5.74-0.34,7.49
		c-4.12-0.21-8.08-0.31-11.86-0.31h-2.63l-0.41,6.24l-0.98,24.02l-0.07,4.03c-0.02,1.66-0.03,3.39-0.03,5.19l-5.2-0.07
		C805.52,787.04,803.67,787.06,800.52,787.1z"/>
	<path class="st2" d="M827.33,787.1c0.69-6.79,1.2-14.59,1.55-23.41s0.52-16.57,0.52-23.24c2.73,0.05,5.02,0.07,6.87,0.07
		c1.98,0,3.92-0.03,5.83-0.1c1.9-0.07,3.91-0.1,6.03-0.1c2.64,0,5.01,0.15,7.09,0.44c2.08,0.3,3.94,0.98,5.55,2.05
		c1.62,1.07,2.82,2.37,3.6,3.9c0.79,1.53,1.18,3.3,1.18,5.33c0,1.28-0.15,2.49-0.44,3.64c-0.3,1.15-0.73,2.23-1.32,3.25
		c-0.58,1.01-1.27,1.9-2.07,2.67c-0.8,0.76-1.59,1.37-2.38,1.81c-0.79,0.44-1.68,0.83-2.68,1.14c-1,0.32-2.35,0.71-4.03,1.16
		l2.32,4.51c0.75,1.44,2.18,4.01,4.27,7.72l3.45,6.05c0.18,0.32,0.73,1.36,1.64,3.11c-2.79-0.04-4.63-0.07-5.52-0.07
		c-1.1,0-3.03,0.02-5.79,0.07l-3.79-9.09c-0.66-1.39-1.46-3.03-2.39-4.92l-4.13-8.31c-0.41-0.77-0.98-1.94-1.71-3.49
		c1.53,0.27,2.92,0.41,4.17,0.41c1.96,0,3.75-0.32,5.37-0.96c1.62-0.64,2.86-1.62,3.73-2.96c0.87-1.33,1.3-2.79,1.3-4.36
		c0-0.96-0.19-1.85-0.56-2.67s-1.01-1.51-1.9-2.08c-0.89-0.57-1.95-0.93-3.18-1.09c-1.23-0.16-2.46-0.24-3.69-0.24
		c-0.68,0-1.62,0.01-2.8,0.03c-1.19,0.02-2.64,0.03-4.38,0.03l-0.61,14.05l-0.64,25.63l-5.3-0.07
		C831.66,787.04,829.93,787.06,827.33,787.1z"/>
	<path class="st2" d="M861.88,787.1c2.37-4.19,5.15-9.38,8.34-15.55l8.99-17.26c2.8-5.33,5.13-9.95,6.98-13.84
		c2.96,0.05,5.06,0.07,6.29,0.07c2.16,0,4.28-0.02,6.36-0.07l4.88,13.98l10.62,28.92l1.47,3.76l-5.12-0.07
		c-1.18,0-3.17,0.02-5.97,0.07c-0.55-2.03-1.41-4.76-2.59-8.2c-1.18-3.44-2.18-6.23-3-8.37h-17.99c-2.66,5.42-5.26,10.95-7.79,16.58
		l-5.57-0.07C866.74,787.04,864.77,787.06,861.88,787.1z M884.19,763.42h13.1l-5.38-15.82l-2.77,5.75L884.19,763.42z"/>
	<path class="st2" d="M917.27,787.1c0.43-4.08,0.76-8.66,0.99-13.74l0.78-16.75c0.27-6.06,0.41-11.45,0.41-16.17
		c2.64,0.05,4.88,0.07,6.73,0.07c1.37,0,3.36-0.02,5.98-0.07c2.58,4.49,6.13,10.35,10.67,17.57c4.54,7.22,8.2,13.21,10.98,17.94
		l1.25-31.72c0.02-0.75,0.03-2.02,0.03-3.79c2.14,0.05,3.76,0.07,4.86,0.07c0.43,0,2.03-0.02,4.79-0.07l-0.85,12.54l-1.06,21.46
		l-0.41,12.65c-2.37-0.04-4.39-0.07-6.05-0.07c-1.32,0-3.46,0.02-6.43,0.07c-1.14-2.03-2.01-3.53-2.6-4.51
		c-0.93-1.5-2.93-4.6-5.98-9.3c-2.01-3.1-4.51-7.06-7.52-11.89c-2.21-3.55-4.1-6.65-5.68-9.3c-0.18,3.69-0.46,10.54-0.85,20.54
		c-0.16,4.08-0.28,8.9-0.37,14.46c-2.14-0.04-3.7-0.07-4.65-0.07C921.54,787.04,919.87,787.06,917.27,787.1z"/>
	<path class="st2" d="M967.64,786.11c-0.18-3.46-0.42-6.29-0.72-8.48c4.47,2.03,8.52,3.04,12.17,3.04c1.46,0,2.82-0.22,4.08-0.67
		c1.27-0.45,2.2-1.07,2.8-1.88c0.6-0.81,0.91-1.71,0.91-2.72c0-0.77-0.15-1.47-0.44-2.08c-0.44-0.84-1.16-1.72-2.18-2.63
		c-1.3-1.25-3.63-3.32-6.97-6.19c-1.59-1.39-2.69-2.38-3.3-2.97c-1.37-1.3-2.42-2.47-3.14-3.5c-0.73-1.04-1.25-2.07-1.57-3.09
		c-0.32-1.03-0.48-2.12-0.48-3.28c0-2.14,0.6-4.15,1.79-6.03c1.2-1.88,2.99-3.35,5.37-4.41c2.38-1.06,5.38-1.59,9.01-1.59
		c3.26,0,6.93,0.4,11.01,1.2c0.11,2.37,0.34,5.08,0.68,8.13c-3.55-1.37-6.82-2.05-9.82-2.05c-2.23,0-4.05,0.51-5.48,1.52
		c-1.42,1.01-2.13,2.19-2.13,3.54c0,0.37,0.05,0.75,0.15,1.14c0.1,0.4,0.25,0.79,0.45,1.16c0.2,0.38,0.55,0.87,1.06,1.47
		s1.25,1.31,2.23,2.12c0.98,0.81,1.81,1.46,2.51,1.96l4.22,3.83c1.07,0.89,2.02,1.75,2.87,2.6c0.84,0.84,1.56,1.65,2.17,2.43
		c0.6,0.78,1.07,1.52,1.42,2.22c0.34,0.71,0.6,1.43,0.77,2.17c0.17,0.74,0.26,1.52,0.26,2.34c0,1.91-0.44,3.72-1.33,5.42
		s-2.17,3.09-3.83,4.19c-1.66,1.09-3.49,1.85-5.47,2.27c-1.98,0.42-4.08,0.63-6.29,0.63c-1.46,0-3.16-0.13-5.09-0.38
		C973.35,787.3,970.8,786.82,967.64,786.11z"/>
	<path class="st2" d="M1001.29,787.1l0.62-8.1l0.85-17.94l0.41-13.02c0.02-1.18,0.03-2.38,0.03-3.59c0-0.89-0.01-2.22-0.03-4
		c2.92,0.05,5.29,0.07,7.11,0.07c1.46,0,3.49-0.03,6.08-0.1s4.66-0.1,6.19-0.1c3.14,0,5.46,0.23,6.94,0.68
		c1.57,0.5,2.95,1.29,4.13,2.36c1.18,1.07,2.08,2.36,2.7,3.86c0.68,1.69,1.03,3.5,1.03,5.43c0,2.94-0.74,5.61-2.2,8.02
		c-1.47,2.4-3.5,4.2-6.1,5.38c-2.6,1.19-5.48,1.78-8.65,1.78c-1.55,0-3.2-0.16-4.96-0.48c-0.5-2.37-1.07-4.59-1.71-6.67
		c1.41,0.3,2.81,0.44,4.19,0.44c1.89,0,3.52-0.28,4.91-0.85c1.39-0.57,2.49-1.5,3.31-2.79c0.82-1.29,1.23-2.74,1.23-4.36
		c0-0.96-0.17-1.83-0.51-2.63c-0.34-0.8-0.84-1.44-1.48-1.91s-1.36-0.8-2.15-0.97c-0.78-0.17-1.9-0.26-3.36-0.26
		c-1.27,0-2.56,0.02-3.85,0.07c-1.3,0.05-2.44,0.07-3.44,0.07c-0.27,4.47-0.48,8.74-0.61,12.82l-0.41,13.06
		c-0.14,4.63-0.2,8.02-0.2,10.19c0,0.82,0.01,2.01,0.03,3.55l-4.96-0.07C1005.78,787.04,1004.07,787.06,1001.29,787.1z"/>
	<path class="st2" d="M1065.46,739.63c3.39,0,6.65,0.47,9.78,1.4c3.12,0.93,5.89,2.46,8.31,4.56c2.42,2.11,4.24,4.56,5.47,7.37
		s1.85,6.07,1.85,9.81c0,3.51-0.58,6.87-1.74,10.07s-2.96,5.96-5.4,8.27c-2.44,2.31-5.41,4.03-8.9,5.14s-7.17,1.67-11.02,1.67
		c-3.65,0-7.15-0.51-10.51-1.54s-6.25-2.63-8.68-4.82c-2.43-2.19-4.16-4.7-5.21-7.54c-1.05-2.84-1.57-5.91-1.57-9.21
		c0-3.62,0.65-7.09,1.97-10.39c1.31-3.3,3.23-6.04,5.78-8.2c2.54-2.16,5.51-3.8,8.92-4.92
		C1057.88,740.19,1061.54,739.63,1065.46,739.63z M1064.92,746.91c-3.44,0-6.44,0.79-8.99,2.38c-2.55,1.58-4.47,3.75-5.76,6.49
		c-1.29,2.75-1.93,5.71-1.93,8.9c0,2.96,0.62,5.69,1.86,8.19c1.24,2.5,3.15,4.4,5.72,5.71c2.57,1.31,5.35,1.96,8.34,1.96
		c2.26,0,4.41-0.39,6.46-1.16c2.05-0.77,3.82-1.95,5.32-3.54c1.49-1.58,2.61-3.49,3.37-5.73c0.75-2.23,1.13-4.56,1.13-6.97
		c0-2.26-0.34-4.42-1.01-6.49c-0.67-2.07-1.72-3.86-3.13-5.35c-1.41-1.49-3.12-2.6-5.11-3.32
		C1069.2,747.27,1067.11,746.91,1064.92,746.91z"/>
	<path class="st2" d="M1093.79,787.1c0.69-6.79,1.2-14.59,1.55-23.41s0.52-16.57,0.52-23.24c2.73,0.05,5.02,0.07,6.87,0.07
		c1.98,0,3.92-0.03,5.83-0.1c1.9-0.07,3.91-0.1,6.03-0.1c2.64,0,5.01,0.15,7.09,0.44c2.08,0.3,3.94,0.98,5.55,2.05
		c1.62,1.07,2.82,2.37,3.6,3.9c0.79,1.53,1.18,3.3,1.18,5.33c0,1.28-0.15,2.49-0.44,3.64c-0.3,1.15-0.74,2.23-1.32,3.25
		c-0.58,1.01-1.27,1.9-2.07,2.67c-0.8,0.76-1.59,1.37-2.38,1.81c-0.79,0.44-1.68,0.83-2.68,1.14c-1,0.32-2.35,0.71-4.03,1.16
		l2.32,4.51c0.75,1.44,2.18,4.01,4.27,7.72l3.45,6.05c0.18,0.32,0.73,1.36,1.64,3.11c-2.79-0.04-4.63-0.07-5.52-0.07
		c-1.1,0-3.03,0.02-5.79,0.07l-3.79-9.09c-0.66-1.39-1.46-3.03-2.39-4.92l-4.13-8.31c-0.41-0.77-0.98-1.94-1.71-3.49
		c1.53,0.27,2.92,0.41,4.17,0.41c1.96,0,3.75-0.32,5.37-0.96c1.62-0.64,2.86-1.62,3.73-2.96c0.87-1.33,1.3-2.79,1.3-4.36
		c0-0.96-0.19-1.85-0.56-2.67c-0.38-0.82-1.01-1.51-1.9-2.08c-0.89-0.57-1.95-0.93-3.18-1.09c-1.23-0.16-2.46-0.24-3.69-0.24
		c-0.68,0-1.62,0.01-2.8,0.03c-1.19,0.02-2.64,0.03-4.38,0.03l-0.61,14.05l-0.64,25.63l-5.3-0.07
		C1098.11,787.04,1096.38,787.06,1093.79,787.1z"/>
	<path class="st2" d="M1144.46,787.1l0.75-9.98l0.75-14.87l0.48-14.63h-2.39l-2.22,0.03l-2.12,0.03l-7.88,0.24
		c0.18-3.28,0.29-5.78,0.31-7.49c6.56,0.05,13.43,0.07,20.6,0.07l12.27-0.03l6.56-0.04c-0.23,3.24-0.34,5.74-0.34,7.49
		c-4.13-0.21-8.08-0.31-11.86-0.31h-2.63l-0.41,6.24l-0.98,24.02l-0.07,4.03c-0.02,1.66-0.03,3.39-0.03,5.19l-5.2-0.07
		C1149.47,787.04,1147.61,787.06,1144.46,787.1z"/>
</g>
<line class="st3" x1="489" y1="226" x2="489" y2="799"/>
</svg>
