<?xml version="1.0" encoding="utf-8"?>
<!-- Generator: Adobe Illustrator 23.0.1, SVG Export Plug-In . SVG Version: 6.00 Build 0)  -->
<svg version="1.1" id="Capa_1" xmlns="http://www.w3.org/2000/svg" xmlns:xlink="http://www.w3.org/1999/xlink" x="0px" y="0px"
	 viewBox="0 0 478 478" style="enable-background:new 0 0 478 478;" xml:space="preserve">
<style type="text/css">
	.st0{fill:#B55400;}
</style>
<g>
	<path class="st0" d="M458.8,178H228.5V35.9c0-10.4-8.5-18.9-18.9-18.9h-60.4C140,8.5,127.7,3.3,114.2,3.3S88.5,8.5,79.3,17H18.9
		C8.5,17,0,25.5,0,35.9v259.2C0,305.5,8.5,314,18.9,314h117.3v141.4c0,10.6,8.6,19.3,19.3,19.3h303.4c10.6,0,19.3-8.6,19.3-19.3
		V197.3C478,186.6,469.4,178,458.8,178z M265,201h84.2v146.7l-38.1-14c-2.6-0.9-5.4-0.9-8,0l-38.1,14L265,201L265,201z M114.2,26.3
		c15.2,0,27.6,11.9,28.4,26.9H85.8C86.6,38.3,99.1,26.3,114.2,26.3z M23,40h41.9c-1.3,4.2-2,8.7-2.1,13.2H40.4
		c-6.4,0-11.5,5.1-11.5,11.5s5.1,11.5,11.5,11.5h147.7c6.4,0,11.5-5.1,11.5-11.5s-5.1-11.5-11.5-11.5h-22.4c-0.1-4.6-0.9-9-2.1-13.2
		h41.9v251H23V40z M455,451.7H159.2V314h50.4c10.4,0,18.9-8.5,18.9-18.9V201H242v163.2c0,3.8,1.8,7.3,4.9,9.4c2,1.4,4.3,2.1,6.6,2.1
		c1.3,0,2.7-0.2,4-0.7l49.6-18.3l49.6,18.3c3.5,1.3,7.5,0.8,10.6-1.4s4.9-5.7,4.9-9.4V201H455L455,451.7L455,451.7z"/>
	<path class="st0" d="M152.7,151l-56,56l-20.9-20.9c-4.5-4.5-11.8-4.5-16.3,0c-4.5,4.5-4.5,11.8,0,16.3l29.1,29.1
		c2.2,2.2,5.1,3.4,8.1,3.4c3.1,0,6-1.2,8.1-3.4l64.2-64.2c4.5-4.5,4.5-11.8,0-16.3C164.5,146.5,157.2,146.5,152.7,151z"/>
</g>
</svg>
