<?xml version="1.0" encoding="utf-8"?>
<!-- Generator: Adobe Illustrator 23.0.1, SVG Export Plug-In . SVG Version: 6.00 Build 0)  -->
<svg version="1.1" id="Capa_1" xmlns="http://www.w3.org/2000/svg" xmlns:xlink="http://www.w3.org/1999/xlink" x="0px" y="0px"
	 viewBox="0 0 490 490" style="enable-background:new 0 0 490 490;" xml:space="preserve">
<style type="text/css">
	.st0{fill:#3C415E;stroke:#3C415E;stroke-width:4;stroke-miterlimit:10;}
</style>
<path class="st0" d="M479.6,78.2H10.4c-0.1,0-0.1,0-0.2,0l0,0C4.6,78.3,0,82.9,0,88.6v312.8c0,5.8,4.7,10.4,10.4,10.4h469.1
	c5.8,0,10.4-4.7,10.4-10.4V88.6C490,82.9,485.3,78.2,479.6,78.2z M454.4,99L315.8,237.6l0,0L245,308.4l-70.8-70.8l0,0L35.6,99H454.4
	z M20.9,113.8L152.1,245L20.9,376.2V113.8z M35.6,391l131.2-131.2l70.8,70.8c3.6,3.6,9.3,5.4,14.7,0l70.8-70.8L454.4,391H35.6z
	 M469.1,376.2L337.9,245l131.2-131.2L469.1,376.2L469.1,376.2z"/>
</svg>
