<?xml version="1.0" encoding="utf-8"?>
<!-- Generator: Adobe Illustrator 23.0.1, SVG Export Plug-In . SVG Version: 6.00 Build 0)  -->
<svg version="1.1" id="Layer_1" xmlns="http://www.w3.org/2000/svg" xmlns:xlink="http://www.w3.org/1999/xlink" x="0px" y="0px"
	 viewBox="0 0 496 496" style="enable-background:new 0 0 496 496;" xml:space="preserve">
<style type="text/css">
	.st0{fill:#B55400;}
</style>
<g>
	<g>
		<g>
			<path class="st0" d="M456,208H344c-22.1,0-40,17.9-40,40v68.2l-48-10.7v-19.8c23.3-16.8,38.8-43.9,39.8-74.6
				c20.7-21.9,32.2-50.3,32.2-80.5V96c0-20.3-15.1-37.1-34.7-39.6C276.5,22,241.6,0,203.1,0h-13.5c-26,0-51.7,8.8-72.2,24.8
				C88.5,47.2,72,81.1,72,117.6V128v2.7V232c0,13.2,10.8,24,24,24h21c6.8,11.7,16,21.9,27,29.8v19.8l-62.6,13.9
				C33.5,330.1,0,371.9,0,421v75h344h112c22.1,0,40-17.9,40-40V248C496,225.9,478.1,208,456,208z M304,332.6v25.1l-17.4-29
				L304,332.6z M96,240c-4.4,0-8-3.6-8-8v-42.3c4.5,7.7,9.9,14.9,16.2,21.6c0.3,10.1,2.2,19.7,5.4,28.7H96z M115.3,152H104v33.3
				c-10.4-16.1-16-34.9-16-54.6V128v-10.4c0-31.6,14.3-60.8,39.2-80.2C145,23.6,167.1,16,189.6,16h13.5c33.8,0,64.3,20.1,77.6,51.2
				l2.1,4.8h5.3c13.2,0,24,10.8,24,24v34.7c0,19.6-5.6,38.4-16,54.6V120h-17.5l-2.8,1.1C224.5,141.6,170.5,152,115.3,152z
				 M136.2,256h33.3c3.3,9.3,12.1,16,22.5,16h16c13.2,0,24-10.8,24-24s-10.8-24-24-24h-16c-10.4,0-19.2,6.7-22.5,16h-42.7
				c-4.3-9.8-6.7-20.6-6.7-32v-40c55-0.6,108.8-11.1,160-31.4V208c0,44.1-35.9,80-80,80C173.9,288,150.8,275.4,136.2,256z M184,248
				c0-4.4,3.6-8,8-8h16c4.4,0,8,3.6,8,8s-3.6,8-8,8h-16C187.6,256,184,252.4,184,248z M96,480v-32H80v32H16v-59
				c0-41.6,28.3-76.9,68.9-85.9l28.5-6.3l-20.4,34l40.9,24.5l-23.7,55.4L160,480H96z M186.7,480l-56.8-42.6l24.3-56.6L115,357.3
				l19.9-33.1l-0.1-0.1l11.6-2.6L189.5,480H186.7z M160,310.9v-15.8c12.2,5.6,25.7,8.8,40,8.8s27.8-3.2,40-8.8v15.8l-40,146.7
				L160,310.9z M210.5,480l43.2-158.5l11.6,2.6l-0.1,0.1l19.9,33.1l-39.1,23.5l24.3,56.6L213.3,480H210.5z M240,480l49.8-37.4
				l-23.7-55.4l37.9-22.7V456c0,9,3.1,17.3,8.2,24H240z M480,456c0,13.2-10.8,24-24,24H344c-13.2,0-24-10.8-24-24v-8h160V456z
				 M480,432H320V264h160V432z M320,248c0-13.2,10.8-24,24-24h112c13.2,0,24,10.8,24,24H320z"/>
			<rect x="376" y="456" class="st0" width="48" height="16"/>
		</g>
	</g>
</g>
</svg>
